<svg width="188" height="36" viewBox="0 0 188 36" fill="none" xmlns="http://www.w3.org/2000/svg">
<path d="M21.375 13.5H14.625C14.3266 13.5 14.0405 13.6185 13.8295 13.8295C13.6185 14.0405 13.5 14.3266 13.5 14.625V21.375C13.5 21.6734 13.6185 21.9595 13.8295 22.1705C14.0405 22.3815 14.3266 22.5 14.625 22.5H21.375C21.6734 22.5 21.9595 22.3815 22.1705 22.1705C22.3815 21.9595 22.5 21.6734 22.5 21.375V14.625C22.5 14.3266 22.3815 14.0405 22.1705 13.8295C21.9595 13.6185 21.6734 13.5 21.375 13.5ZM20.25 20.25H15.75V15.75H20.25V20.25ZM32.625 20.25H30.375V15.75H32.625C32.9234 15.75 33.2095 15.6315 33.4205 15.4205C33.6315 15.2095 33.75 14.9234 33.75 14.625C33.75 14.3266 33.6315 14.0405 33.4205 13.8295C33.2095 13.6185 32.9234 13.5 32.625 13.5H30.375V7.875C30.375 7.27826 30.1379 6.70597 29.716 6.28401C29.294 5.86205 28.7217 5.625 28.125 5.625H22.5V3.375C22.5 3.07663 22.3815 2.79048 22.1705 2.5795C21.9595 2.36853 21.6734 2.25 21.375 2.25C21.0766 2.25 20.7905 2.36853 20.5795 2.5795C20.3685 2.79048 20.25 3.07663 20.25 3.375V5.625H15.75V3.375C15.75 3.07663 15.6315 2.79048 15.4205 2.5795C15.2095 2.36853 14.9234 2.25 14.625 2.25C14.3266 2.25 14.0405 2.36853 13.8295 2.5795C13.6185 2.79048 13.5 3.07663 13.5 3.375V5.625H7.875C7.27826 5.625 6.70597 5.86205 6.28401 6.28401C5.86205 6.70597 5.625 7.27826 5.625 7.875V13.5H3.375C3.07663 13.5 2.79048 13.6185 2.5795 13.8295C2.36853 14.0405 2.25 14.3266 2.25 14.625C2.25 14.9234 2.36853 15.2095 2.5795 15.4205C2.79048 15.6315 3.07663 15.75 3.375 15.75H5.625V20.25H3.375C3.07663 20.25 2.79048 20.3685 2.5795 20.5795C2.36853 20.7905 2.25 21.0766 2.25 21.375C2.25 21.6734 2.36853 21.9595 2.5795 22.1705C2.79048 22.3815 3.07663 22.5 3.375 22.5H5.625V28.125C5.625 28.7217 5.86205 29.294 6.28401 29.716C6.70597 30.1379 7.27826 30.375 7.875 30.375H13.5V32.625C13.5 32.9234 13.6185 33.2095 13.8295 33.4205C14.0405 33.6315 14.3266 33.75 14.625 33.75C14.9234 33.75 15.2095 33.6315 15.4205 33.4205C15.6315 33.2095 15.75 32.9234 15.75 32.625V30.375H20.25V32.625C20.25 32.9234 20.3685 33.2095 20.5795 33.4205C20.7905 33.6315 21.0766 33.75 21.375 33.75C21.6734 33.75 21.9595 33.6315 22.1705 33.4205C22.3815 33.2095 22.5 32.9234 22.5 32.625V30.375H28.125C28.7217 30.375 29.294 30.1379 29.716 29.716C30.1379 29.294 30.375 28.7217 30.375 28.125V22.5H32.625C32.9234 22.5 33.2095 22.3815 33.4205 22.1705C33.6315 21.9595 33.75 21.6734 33.75 21.375C33.75 21.0766 33.6315 20.7905 33.4205 20.5795C33.2095 20.3685 32.9234 20.25 32.625 20.25ZM28.125 28.125H7.875V7.875H28.125V21.3567C28.125 21.3567 28.125 21.3694 28.125 21.375C28.125 21.3806 28.125 21.3877 28.125 21.3933V28.125Z" fill="#FF550D"/>
<path d="M49.6795 25.5H44.3275V8.7H49.6795C55.2475 8.7 58.2235 12.756 58.2235 17.1C58.2235 21.444 55.2475 25.5 49.6795 25.5ZM46.5115 10.668V23.532H49.5115C53.9035 23.532 55.9675 20.364 55.9675 17.1C55.9675 13.836 53.9035 10.668 49.5115 10.668H46.5115ZM69.7973 19.356C69.7973 19.764 69.7973 20.076 69.7493 20.58H61.1813C61.2293 22.716 62.5493 23.964 64.6613 23.964C66.1253 23.964 67.1333 23.388 67.5893 22.332H69.6773C69.2933 24.372 67.2533 25.788 64.6613 25.788C61.2533 25.788 59.1173 23.532 59.1173 19.956C59.1173 16.452 61.2773 14.148 64.5653 14.148C67.6853 14.148 69.7973 16.308 69.7973 19.356ZM61.1813 18.972H67.7573C67.7573 17.028 66.5573 15.828 64.5413 15.828C62.5253 15.828 61.2773 17.1 61.1813 18.972ZM75.9636 25.5H74.2596L69.3876 14.436H71.6196L75.0996 22.716L78.6036 14.436H80.8356L75.9636 25.5ZM91.0804 19.356C91.0804 19.764 91.0804 20.076 91.0324 20.58H82.4644C82.5124 22.716 83.8324 23.964 85.9444 23.964C87.4084 23.964 88.4164 23.388 88.8724 22.332H90.9604C90.5764 24.372 88.5364 25.788 85.9444 25.788C82.5364 25.788 80.4004 23.532 80.4004 19.956C80.4004 16.452 82.5604 14.148 85.8484 14.148C88.9684 14.148 91.0804 16.308 91.0804 19.356ZM82.4644 18.972H89.0404C89.0404 17.028 87.8404 15.828 85.8244 15.828C83.8084 15.828 82.5604 17.1 82.4644 18.972ZM94.9321 25.5H92.8441V8.7H94.9321V25.5ZM102.451 25.788C98.8514 25.788 96.6914 23.196 96.6914 19.98C96.6914 16.74 98.8514 14.148 102.451 14.148C106.027 14.148 108.211 16.74 108.211 19.98C108.211 23.196 106.027 25.788 102.451 25.788ZM102.451 23.916C104.779 23.916 106.123 22.188 106.123 19.98C106.123 17.748 104.779 16.02 102.451 16.02C100.123 16.02 98.7554 17.748 98.7554 19.98C98.7554 22.188 100.123 23.916 102.451 23.916ZM116.076 14.148C119.244 14.148 121.428 16.524 121.428 19.98C121.428 23.364 119.148 25.788 115.956 25.788C114.252 25.788 112.716 24.924 111.996 23.556V30.612H109.932V14.436H111.996V16.404C112.716 15.012 114.3 14.148 116.076 14.148ZM115.668 23.916C117.804 23.916 119.34 22.284 119.34 19.98C119.34 17.676 117.804 16.02 115.668 16.02C113.46 16.02 111.9 17.652 111.9 19.98C111.9 22.284 113.46 23.916 115.668 23.916ZM132.944 19.356C132.944 19.764 132.944 20.076 132.896 20.58H124.328C124.376 22.716 125.696 23.964 127.808 23.964C129.272 23.964 130.28 23.388 130.736 22.332H132.824C132.44 24.372 130.4 25.788 127.808 25.788C124.4 25.788 122.264 23.532 122.264 19.956C122.264 16.452 124.424 14.148 127.712 14.148C130.832 14.148 132.944 16.308 132.944 19.356ZM124.328 18.972H130.904C130.904 17.028 129.704 15.828 127.688 15.828C125.672 15.828 124.424 17.1 124.328 18.972ZM136.795 25.5H134.707V14.436H136.795V16.956C137.227 15.084 138.643 14.268 140.035 14.268C140.419 14.268 140.779 14.292 141.043 14.364V16.284C140.683 16.212 140.395 16.212 140.011 16.212C137.827 16.212 136.795 18.204 136.795 20.676V25.5ZM149.81 25.5H147.626V8.7H157.178V10.668H149.81V16.74H157.178V18.708H149.81V25.5ZM160.351 12.54C159.343 12.54 158.647 11.796 158.647 10.86C158.647 9.924 159.343 9.156 160.351 9.156C161.335 9.156 162.031 9.924 162.031 10.86C162.031 11.796 161.335 12.54 160.351 12.54ZM161.383 25.5H159.319V14.436H161.383V25.5ZM166.119 25.5H164.031V14.436H166.119V16.956C166.551 15.084 167.967 14.268 169.359 14.268C169.743 14.268 170.103 14.292 170.367 14.364V16.284C170.007 16.212 169.719 16.212 169.335 16.212C167.151 16.212 166.119 18.204 166.119 20.676V25.5ZM175.088 25.788C172.376 25.788 170.504 24.228 170.504 22.188H172.568C172.568 23.268 173.576 24.108 175.208 24.108C176.432 24.108 177.248 23.508 177.248 22.524C177.248 21.78 176.912 21.276 175.592 20.94L173.336 20.364C171.704 19.908 170.84 18.852 170.84 17.316C170.84 15.444 172.568 14.148 174.968 14.148C177.608 14.148 179.216 15.42 179.216 17.484H177.176C177.176 16.428 176.336 15.756 174.896 15.756C173.744 15.756 172.904 16.308 172.904 17.22C172.904 17.916 173.312 18.42 174.512 18.756L176.792 19.38C178.424 19.836 179.36 20.916 179.36 22.452C179.36 24.564 177.704 25.788 175.088 25.788ZM185.47 23.772C185.878 23.772 186.55 23.7 186.862 23.628V25.476C186.454 25.572 185.71 25.644 184.99 25.644C183.694 25.644 181.606 25.404 181.606 21.828V16.188H179.614V14.436H181.606V10.932H183.694V14.436H186.478V16.188H183.694V21.372C183.694 23.484 184.414 23.772 185.47 23.772Z" fill="#FF550D"/>
</svg>
