<svg width="37" height="36" viewBox="0 0 37 36" fill="none" xmlns="http://www.w3.org/2000/svg">
<path d="M32.0449 16.065C32.5707 14.7781 32.7464 13.3749 32.5542 11.9981C32.362 10.6213 31.8087 9.31987 30.9507 8.22611C30.0926 7.13236 28.9603 6.28524 27.6688 5.77083C26.3773 5.25642 24.9727 5.09305 23.5976 5.29733C22.7454 4.19964 21.618 3.34699 20.3297 2.82595C19.0414 2.30492 17.6382 2.13406 16.2626 2.33073C14.8869 2.52739 13.5878 3.08458 12.4971 3.94571C11.4064 4.80684 10.5631 5.94124 10.0526 7.23374C8.67523 7.42228 7.37232 7.97208 6.27626 8.82728C5.18021 9.68248 4.33008 10.8126 3.81226 12.1028C3.29445 13.393 3.1274 14.7972 3.32811 16.1729C3.52881 17.5485 4.0901 18.8465 4.95495 19.935C4.53291 20.9692 4.33574 22.0814 4.37651 23.1977C4.41728 24.314 4.69507 25.4089 5.19143 26.4096C5.68779 27.4103 6.39136 28.2939 7.25543 29.0019C8.1195 29.7098 9.12429 30.2258 10.2031 30.5156C10.8717 30.6986 11.5615 30.7932 12.2548 30.7969C12.6393 30.7965 13.0234 30.7678 13.4037 30.7111C14.256 31.8084 15.3835 32.6606 16.6717 33.1814C17.9599 33.7021 19.3629 33.8727 20.7383 33.6759C22.1138 33.4791 23.4126 32.9219 24.5031 32.0608C25.5936 31.1998 26.4369 30.0656 26.9473 28.7733C28.3247 28.5847 29.6276 28.0349 30.7236 27.1797C31.8197 26.3245 32.6698 25.1944 33.1876 23.9042C33.7055 22.6141 33.8725 21.2098 33.6718 19.8341C33.4711 18.4585 32.9098 17.1605 32.0449 16.072V16.065ZM26.2132 7.65421C27.6308 8.03317 28.8442 8.95109 29.5946 10.2121C30.3449 11.4732 30.5727 12.9775 30.2295 14.4042C30.0959 14.3156 29.9609 14.2298 29.8203 14.1497L23.5624 10.53C23.3914 10.4312 23.1974 10.3793 22.9999 10.3793C22.8025 10.3793 22.6085 10.4312 22.4374 10.53L16.2499 14.1033V11.5045L21.9453 8.21671C22.5842 7.84559 23.2904 7.60479 24.0229 7.50824C24.7555 7.41169 25.5 7.4613 26.2132 7.65421ZM20.7499 19.2994L18.4999 20.5987L16.2499 19.2994V16.7006L18.4999 15.4012L20.7499 16.7006V19.2994ZM11.7499 10.125C11.7505 9.0253 12.0733 7.94989 12.6786 7.03175C13.2838 6.11361 14.1449 5.39301 15.1554 4.95909C16.1658 4.52516 17.2813 4.39693 18.3639 4.59026C19.4464 4.7836 20.4486 5.29001 21.2464 6.04686C21.1057 6.11858 20.9651 6.18749 20.8245 6.27468L14.5624 9.88171C14.3916 9.98035 14.2497 10.1222 14.151 10.293C14.0522 10.4638 14.0002 10.6576 13.9999 10.8548V18L11.7499 16.7006V10.125ZM6.24589 12.2245C6.96266 10.9745 8.13448 10.0495 9.51682 9.64265C9.50698 9.80296 9.49995 9.96327 9.49995 10.125V17.3503C9.4999 17.5478 9.55187 17.7419 9.65061 17.9129C9.74935 18.084 9.89139 18.2261 10.0624 18.3248L16.2499 21.8967L13.9999 23.2031L8.30464 19.9083C7.01273 19.1623 6.07004 17.9337 5.68395 16.4928C5.29787 15.0518 5.5 13.5165 6.24589 12.2245ZM10.7867 28.3458C9.36906 27.9668 8.15565 27.0489 7.40532 25.7878C6.655 24.5268 6.42716 23.0224 6.77042 21.5958C6.90401 21.6844 7.03901 21.7701 7.17964 21.8503L13.4374 25.47C13.6085 25.5687 13.8025 25.6207 13.9999 25.6207C14.1974 25.6207 14.3914 25.5687 14.5624 25.47L20.7499 21.8967V24.4955L15.0546 27.7833C14.4157 28.1544 13.7095 28.3952 12.977 28.4917C12.2444 28.5883 11.4999 28.5387 10.7867 28.3458ZM25.2499 25.875C25.2505 26.975 24.9286 28.051 24.3239 28.97C23.7193 29.8889 22.8585 30.6103 21.848 31.0451C20.8376 31.4798 19.7218 31.6088 18.6389 31.4159C17.5559 31.2231 16.5532 30.7169 15.7549 29.9601C15.8956 29.8884 16.0362 29.8125 16.1768 29.7309L22.4374 26.1183C22.6083 26.0196 22.7502 25.8778 22.8489 25.707C22.9477 25.5362 22.9997 25.3424 22.9999 25.1451V18L25.2499 19.2994V25.875ZM30.754 23.7755C30.0372 25.0255 28.8654 25.9505 27.4831 26.3573C27.4929 26.197 27.4999 26.0367 27.4999 25.875V18.6497C27.5 18.4522 27.448 18.2581 27.3493 18.087C27.2505 17.916 27.1085 17.7739 26.9374 17.6751L20.7499 14.1033L22.9999 12.8039L28.6953 16.0917C29.9872 16.8377 30.9299 18.0662 31.3159 19.5072C31.702 20.9482 31.4999 22.4835 30.754 23.7755Z" fill="#FF550D"/>
</svg>
