<svg width="1307" height="364" viewBox="0 0 1307 364" fill="none" xmlns="http://www.w3.org/2000/svg">
<rect width="1307" height="364" rx="32" fill="url(#paint0_linear_2015_71)"/>
<g filter="url(#filter0_d_2015_71)">
<rect x="53.5" y="55.5" width="1200" height="253" rx="28" fill="#F9F9F9" shape-rendering="crispEdges"/>
<path d="M180.211 157.316C180.211 161.636 178.915 165.596 176.539 168.692L161.131 189.5H151.267L162.643 174.956H162.499C151.411 174.956 144.787 167.18 144.787 157.316C144.787 147.452 151.411 139.676 162.499 139.676C173.587 139.676 180.211 147.452 180.211 157.316ZM152.635 157.316C152.635 163.436 156.163 167.972 162.499 167.972C168.835 167.972 172.363 163.436 172.363 157.316C172.363 151.196 168.835 146.66 162.499 146.66C156.163 146.66 152.635 151.196 152.635 157.316ZM200.072 190.364C189.344 190.364 182.432 184.676 182.432 175.82C182.432 170.06 185.168 165.812 190.064 164.084C185.816 162.356 183.152 157.892 183.152 152.78C183.152 145.004 190.064 139.676 200.072 139.676C210.08 139.676 216.992 145.004 216.992 152.78C216.992 157.892 214.184 162.356 209.936 164.084C214.832 165.812 217.712 170.06 217.712 175.82C217.712 184.676 210.8 190.364 200.072 190.364ZM200.072 160.772C205.256 160.772 208.496 157.892 208.496 153.572C208.496 149.036 205.256 146.3 200.072 146.3C194.888 146.3 191.648 149.036 191.648 153.572C191.648 157.892 195.176 160.772 200.072 160.772ZM200.072 183.38C205.616 183.38 209.288 180.212 209.288 175.316C209.288 170.42 205.616 167.252 200.072 167.252C194.816 167.252 190.856 170.42 190.856 175.316C190.856 180.212 194.528 183.38 200.072 183.38ZM232.533 137.372C236.229 137.372 239.013 138.788 240.885 141.62C242.805 144.404 243.765 148.34 243.765 153.428C243.765 158.516 242.853 162.5 241.029 165.38C239.253 168.212 236.421 169.628 232.533 169.628C230.181 169.628 228.165 168.98 226.485 167.684C224.853 166.388 223.629 164.54 222.813 162.14C221.997 159.692 221.589 156.788 221.589 153.428C221.589 148.34 222.453 144.404 224.181 141.62C225.957 138.788 228.741 137.372 232.533 137.372ZM232.533 142.7C230.949 142.7 229.773 143.612 229.005 145.436C228.237 147.212 227.853 149.876 227.853 153.428C227.853 157.028 228.237 159.74 229.005 161.564C229.773 163.388 230.949 164.3 232.533 164.3C234.213 164.3 235.461 163.412 236.277 161.636C237.093 159.812 237.501 157.076 237.501 153.428C237.501 149.876 237.093 147.212 236.277 145.436C235.461 143.612 234.213 142.7 232.533 142.7ZM266.517 138.092L238.005 189.5H231.597L260.109 138.092H266.517ZM265.365 157.964C267.813 157.964 269.853 158.612 271.485 159.908C273.165 161.156 274.437 162.98 275.301 165.38C276.165 167.732 276.597 170.612 276.597 174.02C276.597 179.108 275.685 183.092 273.861 185.972C272.037 188.804 269.205 190.22 265.365 190.22C262.965 190.22 260.949 189.572 259.317 188.276C257.685 186.98 256.437 185.132 255.573 182.732C254.757 180.284 254.349 177.38 254.349 174.02C254.349 168.932 255.213 164.996 256.941 162.212C258.717 159.38 261.525 157.964 265.365 157.964ZM265.365 163.292C263.733 163.292 262.533 164.18 261.765 165.956C261.045 167.732 260.685 170.42 260.685 174.02C260.685 177.62 261.045 180.332 261.765 182.156C262.533 183.932 263.733 184.82 265.365 184.82C267.045 184.82 268.269 183.932 269.037 182.156C269.853 180.38 270.261 177.668 270.261 174.02C270.261 170.42 269.853 167.732 269.037 165.956C268.269 164.18 267.045 163.292 265.365 163.292Z" fill="#262626"/>
<path d="M123.912 233.5H121.728V216.7H131.28V218.668H123.912V224.74H131.28V226.708H123.912V233.5ZM137.935 233.788C134.407 233.788 132.463 231.244 132.463 227.98C132.463 224.716 134.551 222.148 137.983 222.148C139.735 222.148 141.175 223.036 141.871 224.404V222.436H143.935V233.5H141.871V231.556C141.175 232.924 139.591 233.788 137.935 233.788ZM138.223 231.916C140.647 231.916 141.967 230.116 141.967 227.98C141.967 225.844 140.647 224.02 138.223 224.02C135.943 224.02 134.527 225.7 134.527 227.98C134.527 230.236 135.943 231.916 138.223 231.916ZM150.267 233.788C147.555 233.788 145.683 232.228 145.683 230.188H147.747C147.747 231.268 148.755 232.108 150.387 232.108C151.611 232.108 152.427 231.508 152.427 230.524C152.427 229.78 152.091 229.276 150.771 228.94L148.515 228.364C146.883 227.908 146.019 226.852 146.019 225.316C146.019 223.444 147.747 222.148 150.147 222.148C152.787 222.148 154.395 223.42 154.395 225.484H152.355C152.355 224.428 151.515 223.756 150.075 223.756C148.923 223.756 148.083 224.308 148.083 225.22C148.083 225.916 148.491 226.42 149.691 226.756L151.971 227.38C153.603 227.836 154.539 228.916 154.539 230.452C154.539 232.564 152.883 233.788 150.267 233.788ZM160.649 231.772C161.057 231.772 161.729 231.7 162.041 231.628V233.476C161.633 233.572 160.889 233.644 160.169 233.644C158.873 233.644 156.785 233.404 156.785 229.828V224.188H154.793V222.436H156.785V218.932H158.873V222.436H161.657V224.188H158.873V229.372C158.873 231.484 159.593 231.772 160.649 231.772ZM173.263 227.356C173.263 227.764 173.263 228.076 173.215 228.58H164.647C164.695 230.716 166.015 231.964 168.127 231.964C169.591 231.964 170.599 231.388 171.055 230.332H173.143C172.759 232.372 170.719 233.788 168.127 233.788C164.719 233.788 162.583 231.532 162.583 227.956C162.583 224.452 164.743 222.148 168.031 222.148C171.151 222.148 173.263 224.308 173.263 227.356ZM164.647 226.972H171.223C171.223 225.028 170.023 223.828 168.007 223.828C165.991 223.828 164.743 225.1 164.647 226.972ZM177.115 233.5H175.027V222.436H177.115V224.956C177.547 223.084 178.963 222.268 180.355 222.268C180.739 222.268 181.099 222.292 181.363 222.364V224.284C181.003 224.212 180.715 224.212 180.331 224.212C178.147 224.212 177.115 226.204 177.115 228.676V233.5ZM199.753 233.5H197.401L196.585 230.932H189.601L188.809 233.5H186.457L192.145 216.7H194.065L199.753 233.5ZM193.081 219.724L190.225 228.964H195.985L193.081 219.724ZM201.142 216.7H207.166C210.454 216.7 212.806 219.124 212.806 222.508C212.806 225.868 210.454 228.292 207.166 228.292H203.326V233.5H201.142V216.7ZM203.326 226.324H207.046C209.11 226.324 210.622 224.716 210.622 222.508C210.622 220.276 209.11 218.668 207.046 218.668H203.326V226.324ZM216.288 233.5H214.104V216.7H216.288V233.5ZM229.629 233.5H224.277V216.7H229.629C235.197 216.7 238.173 220.756 238.173 225.1C238.173 229.444 235.197 233.5 229.629 233.5ZM226.461 218.668V231.532H229.461C233.853 231.532 235.917 228.364 235.917 225.1C235.917 221.836 233.853 218.668 229.461 218.668H226.461ZM249.747 227.356C249.747 227.764 249.747 228.076 249.699 228.58H241.131C241.179 230.716 242.499 231.964 244.611 231.964C246.075 231.964 247.083 231.388 247.539 230.332H249.627C249.243 232.372 247.203 233.788 244.611 233.788C241.203 233.788 239.067 231.532 239.067 227.956C239.067 224.452 241.227 222.148 244.515 222.148C247.635 222.148 249.747 224.308 249.747 227.356ZM241.131 226.972H247.707C247.707 225.028 246.507 223.828 244.491 223.828C242.475 223.828 241.227 225.1 241.131 226.972ZM253.599 233.5H251.511V216.7H253.599V233.5ZM257.278 220.54C256.27 220.54 255.574 219.796 255.574 218.86C255.574 217.924 256.27 217.156 257.278 217.156C258.262 217.156 258.958 217.924 258.958 218.86C258.958 219.796 258.262 220.54 257.278 220.54ZM258.31 233.5H256.246V222.436H258.31V233.5ZM265.806 233.5H264.102L259.23 222.436H261.462L264.942 230.716L268.446 222.436H270.678L265.806 233.5ZM280.923 227.356C280.923 227.764 280.923 228.076 280.875 228.58H272.307C272.355 230.716 273.675 231.964 275.787 231.964C277.251 231.964 278.259 231.388 278.715 230.332H280.803C280.419 232.372 278.379 233.788 275.787 233.788C272.379 233.788 270.243 231.532 270.243 227.956C270.243 224.452 272.403 222.148 275.691 222.148C278.811 222.148 280.923 224.308 280.923 227.356ZM272.307 226.972H278.883C278.883 225.028 277.683 223.828 275.667 223.828C273.651 223.828 272.403 225.1 272.307 226.972ZM284.774 233.5H282.686V222.436H284.774V224.956C285.206 223.084 286.622 222.268 288.014 222.268C288.398 222.268 288.758 222.292 289.022 222.364V224.284C288.662 224.212 288.374 224.212 287.99 224.212C285.806 224.212 284.774 226.204 284.774 228.676V233.5ZM298.295 228.124V222.436H300.359V233.716C300.359 235.468 299.831 236.812 298.871 237.7C297.983 238.468 296.759 238.9 295.247 238.9C293.663 238.9 292.367 238.492 291.503 237.748C290.711 237.076 290.279 236.116 290.255 234.892H292.343C292.439 236.236 293.159 237.148 295.223 237.148C297.095 237.148 298.295 236.092 298.295 233.572V231.508C297.647 232.852 296.327 233.764 294.455 233.764C291.575 233.764 290.255 231.844 290.255 229.036V222.436H292.319V228.604C292.319 230.572 292.967 231.916 295.151 231.916C297.287 231.916 298.295 230.116 298.295 228.124Z" fill="#FF550D"/>
<path d="M436.631 189.5H427.487L448.943 148.1H426.623V140.54H461.327L436.631 189.5ZM479.639 190.364C470.495 190.364 463.367 184.604 462.791 176.396H471.143C471.431 180.716 475.247 183.02 479.783 183.02C485.831 183.02 489.359 178.988 489.359 172.94C489.359 166.892 486.047 162.932 480.719 162.932C476.039 162.932 473.015 164.516 471.215 168.62H463.655V140.54H494.399V147.884H471.143V160.556C473.879 157.388 477.839 156.236 481.871 156.236C491.303 156.236 497.279 162.86 497.279 172.652C497.279 182.444 490.511 190.364 479.639 190.364ZM511.75 137.372C515.446 137.372 518.23 138.788 520.102 141.62C522.022 144.404 522.982 148.34 522.982 153.428C522.982 158.516 522.07 162.5 520.246 165.38C518.47 168.212 515.638 169.628 511.75 169.628C509.398 169.628 507.382 168.98 505.702 167.684C504.07 166.388 502.846 164.54 502.03 162.14C501.214 159.692 500.806 156.788 500.806 153.428C500.806 148.34 501.67 144.404 503.398 141.62C505.174 138.788 507.958 137.372 511.75 137.372ZM511.75 142.7C510.166 142.7 508.99 143.612 508.222 145.436C507.454 147.212 507.07 149.876 507.07 153.428C507.07 157.028 507.454 159.74 508.222 161.564C508.99 163.388 510.166 164.3 511.75 164.3C513.43 164.3 514.678 163.412 515.494 161.636C516.31 159.812 516.718 157.076 516.718 153.428C516.718 149.876 516.31 147.212 515.494 145.436C514.678 143.612 513.43 142.7 511.75 142.7ZM545.734 138.092L517.222 189.5H510.814L539.326 138.092H545.734ZM544.582 157.964C547.03 157.964 549.07 158.612 550.702 159.908C552.382 161.156 553.654 162.98 554.518 165.38C555.382 167.732 555.814 170.612 555.814 174.02C555.814 179.108 554.902 183.092 553.078 185.972C551.254 188.804 548.422 190.22 544.582 190.22C542.182 190.22 540.166 189.572 538.534 188.276C536.902 186.98 535.654 185.132 534.79 182.732C533.974 180.284 533.566 177.38 533.566 174.02C533.566 168.932 534.43 164.996 536.158 162.212C537.934 159.38 540.742 157.964 544.582 157.964ZM544.582 163.292C542.95 163.292 541.75 164.18 540.982 165.956C540.262 167.732 539.902 170.42 539.902 174.02C539.902 177.62 540.262 180.332 540.982 182.156C541.75 183.932 542.95 184.82 544.582 184.82C546.262 184.82 547.486 183.932 548.254 182.156C549.07 180.38 549.478 177.668 549.478 174.02C549.478 170.42 549.07 167.732 548.254 165.956C547.486 164.18 546.262 163.292 544.582 163.292Z" fill="#262626"/>
<path d="M387.751 224.932C389.575 225.148 391.135 226.564 391.135 228.916C391.135 231.772 389.143 233.5 385.927 233.5H380.167V216.7H385.687C388.927 216.7 390.919 218.332 390.919 221.044C390.919 223.324 389.647 224.548 387.751 224.932ZM385.615 218.644H382.351V224.02H385.759C387.559 224.02 388.735 222.988 388.735 221.332C388.735 219.604 387.559 218.644 385.615 218.644ZM382.351 231.556H385.879C387.775 231.556 388.951 230.5 388.951 228.7C388.951 227.044 387.751 225.94 386.071 225.94H382.351V231.556ZM398.092 233.788C394.492 233.788 392.332 231.196 392.332 227.98C392.332 224.74 394.492 222.148 398.092 222.148C401.668 222.148 403.852 224.74 403.852 227.98C403.852 231.196 401.668 233.788 398.092 233.788ZM398.092 231.916C400.42 231.916 401.764 230.188 401.764 227.98C401.764 225.748 400.42 224.02 398.092 224.02C395.764 224.02 394.396 225.748 394.396 227.98C394.396 230.188 395.764 231.916 398.092 231.916ZM406.604 220.54C405.596 220.54 404.9 219.796 404.9 218.86C404.9 217.924 405.596 217.156 406.604 217.156C407.588 217.156 408.284 217.924 408.284 218.86C408.284 219.796 407.588 220.54 406.604 220.54ZM407.636 233.5H405.572V222.436H407.636V233.5ZM412.372 233.5H410.284V216.7H412.372V233.5ZM424.812 227.356C424.812 227.764 424.812 228.076 424.764 228.58H416.196C416.244 230.716 417.564 231.964 419.676 231.964C421.14 231.964 422.148 231.388 422.604 230.332H424.692C424.308 232.372 422.268 233.788 419.676 233.788C416.268 233.788 414.132 231.532 414.132 227.956C414.132 224.452 416.292 222.148 419.58 222.148C422.7 222.148 424.812 224.308 424.812 227.356ZM416.196 226.972H422.772C422.772 225.028 421.572 223.828 419.556 223.828C417.54 223.828 416.292 225.1 416.196 226.972ZM428.663 233.5H426.575V222.436H428.663V224.956C429.095 223.084 430.511 222.268 431.903 222.268C432.287 222.268 432.647 222.292 432.911 222.364V224.284C432.551 224.212 432.263 224.212 431.879 224.212C429.695 224.212 428.663 226.204 428.663 228.676V233.5ZM440.408 222.148C443.576 222.148 445.76 224.524 445.76 227.98C445.76 231.364 443.48 233.788 440.288 233.788C438.584 233.788 437.048 232.924 436.328 231.556V238.612H434.264V222.436H436.328V224.404C437.048 223.012 438.632 222.148 440.408 222.148ZM440 231.916C442.136 231.916 443.672 230.284 443.672 227.98C443.672 225.676 442.136 224.02 440 224.02C437.792 224.02 436.232 225.652 436.232 227.98C436.232 230.284 437.792 231.916 440 231.916ZM449.571 233.5H447.483V216.7H449.571V233.5ZM456.803 233.788C453.275 233.788 451.331 231.244 451.331 227.98C451.331 224.716 453.419 222.148 456.851 222.148C458.603 222.148 460.043 223.036 460.739 224.404V222.436H462.803V233.5H460.739V231.556C460.043 232.924 458.459 233.788 456.803 233.788ZM457.091 231.916C459.515 231.916 460.835 230.116 460.835 227.98C460.835 225.844 459.515 224.02 457.091 224.02C454.811 224.02 453.395 225.7 453.395 227.98C453.395 230.236 454.811 231.916 457.091 231.916ZM470.07 231.772C470.478 231.772 471.15 231.7 471.462 231.628V233.476C471.054 233.572 470.31 233.644 469.59 233.644C468.294 233.644 466.206 233.404 466.206 229.828V224.188H464.214V222.436H466.206V218.932H468.294V222.436H471.078V224.188H468.294V229.372C468.294 231.484 469.014 231.772 470.07 231.772ZM482.684 227.356C482.684 227.764 482.684 228.076 482.636 228.58H474.068C474.116 230.716 475.436 231.964 477.548 231.964C479.012 231.964 480.02 231.388 480.476 230.332H482.564C482.18 232.372 480.14 233.788 477.548 233.788C474.14 233.788 472.004 231.532 472.004 227.956C472.004 224.452 474.164 222.148 477.452 222.148C480.572 222.148 482.684 224.308 482.684 227.356ZM474.068 226.972H480.644C480.644 225.028 479.444 223.828 477.428 223.828C475.412 223.828 474.164 225.1 474.068 226.972ZM497.358 233.884C491.91 233.884 488.67 230.092 488.67 225.1C488.67 220.108 491.91 216.316 497.358 216.316C501.894 216.316 504.774 218.836 505.398 222.22H502.998C502.374 219.844 500.478 218.284 497.382 218.284C493.302 218.284 490.95 221.14 490.95 225.1C490.95 229.06 493.302 231.916 497.382 231.916C500.478 231.916 502.374 230.356 502.998 227.98H505.398C504.774 231.364 501.894 233.884 497.358 233.884ZM512.22 233.788C508.62 233.788 506.46 231.196 506.46 227.98C506.46 224.74 508.62 222.148 512.22 222.148C515.796 222.148 517.98 224.74 517.98 227.98C517.98 231.196 515.796 233.788 512.22 233.788ZM512.22 231.916C514.548 231.916 515.892 230.188 515.892 227.98C515.892 225.748 514.548 224.02 512.22 224.02C509.892 224.02 508.524 225.748 508.524 227.98C508.524 230.188 509.892 231.916 512.22 231.916ZM528.151 224.404V216.7H530.215V233.5H528.151V231.556C527.455 232.924 525.871 233.788 524.215 233.788C520.687 233.788 518.743 231.244 518.743 227.98C518.743 224.716 520.831 222.148 524.263 222.148C526.015 222.148 527.455 223.036 528.151 224.404ZM524.503 231.916C526.927 231.916 528.247 230.116 528.247 227.98C528.247 225.844 526.927 224.02 524.503 224.02C522.223 224.02 520.807 225.7 520.807 227.98C520.807 230.236 522.223 231.916 524.503 231.916ZM542.642 227.356C542.642 227.764 542.642 228.076 542.594 228.58H534.026C534.074 230.716 535.394 231.964 537.506 231.964C538.97 231.964 539.978 231.388 540.434 230.332H542.522C542.138 232.372 540.098 233.788 537.506 233.788C534.098 233.788 531.962 231.532 531.962 227.956C531.962 224.452 534.122 222.148 537.41 222.148C540.53 222.148 542.642 224.308 542.642 227.356ZM534.026 226.972H540.602C540.602 225.028 539.402 223.828 537.386 223.828C535.37 223.828 534.122 225.1 534.026 226.972ZM558.876 225.34H567.084V227.308H565.236C564.516 231.268 561.756 233.884 557.244 233.884C551.868 233.884 548.604 230.068 548.628 225.196C548.628 220.42 551.652 216.316 557.34 216.316C561.276 216.316 564.156 218.548 564.588 221.5H562.188C561.708 219.652 559.956 218.284 557.34 218.284C553.044 218.284 550.884 221.38 550.908 225.196C550.884 228.94 553.26 231.916 557.244 231.916C560.412 231.916 562.356 230.26 562.956 227.308H558.876V225.34ZM573.303 233.788C569.703 233.788 567.543 231.196 567.543 227.98C567.543 224.74 569.703 222.148 573.303 222.148C576.879 222.148 579.063 224.74 579.063 227.98C579.063 231.196 576.879 233.788 573.303 233.788ZM573.303 231.916C575.631 231.916 576.975 230.188 576.975 227.98C576.975 225.748 575.631 224.02 573.303 224.02C570.975 224.02 569.607 225.748 569.607 227.98C569.607 230.188 570.975 231.916 573.303 231.916ZM582.872 233.5H580.784V222.436H582.872V224.476C583.472 223.06 584.816 222.148 586.736 222.148C589.448 222.148 590.84 223.732 590.84 226.684V233.5H588.776V227.596C588.776 225.124 587.96 223.948 585.992 223.948C583.928 223.948 582.872 225.412 582.872 227.644V233.5ZM603.163 227.356C603.163 227.764 603.163 228.076 603.115 228.58H594.547C594.595 230.716 595.915 231.964 598.027 231.964C599.491 231.964 600.499 231.388 600.955 230.332H603.043C602.659 232.372 600.619 233.788 598.027 233.788C594.619 233.788 592.483 231.532 592.483 227.956C592.483 224.452 594.643 222.148 597.931 222.148C601.051 222.148 603.163 224.308 603.163 227.356ZM594.547 226.972H601.123C601.123 225.028 599.923 223.828 597.907 223.828C595.891 223.828 594.643 225.1 594.547 226.972Z" fill="#FF550D"/>
<path d="M719.166 157.316C719.166 161.636 717.87 165.596 715.494 168.692L700.086 189.5H690.222L701.598 174.956H701.454C690.366 174.956 683.742 167.18 683.742 157.316C683.742 147.452 690.366 139.676 701.454 139.676C712.542 139.676 719.166 147.452 719.166 157.316ZM691.59 157.316C691.59 163.436 695.118 167.972 701.454 167.972C707.79 167.972 711.318 163.436 711.318 157.316C711.318 151.196 707.79 146.66 701.454 146.66C695.118 146.66 691.59 151.196 691.59 157.316ZM757.138 157.316C757.138 161.636 755.842 165.596 753.466 168.692L738.058 189.5H728.194L739.57 174.956H739.426C728.338 174.956 721.714 167.18 721.714 157.316C721.714 147.452 728.338 139.676 739.426 139.676C750.514 139.676 757.138 147.452 757.138 157.316ZM729.562 157.316C729.562 163.436 733.09 167.972 739.426 167.972C745.762 167.972 749.29 163.436 749.29 157.316C749.29 151.196 745.762 146.66 739.426 146.66C733.09 146.66 729.562 151.196 729.562 157.316ZM760.713 190.076C757.329 190.076 754.665 187.268 754.665 183.956C754.665 180.644 757.329 177.908 760.713 177.908C764.097 177.908 766.833 180.644 766.833 183.956C766.833 187.268 764.097 190.076 760.713 190.076ZM800.104 157.316C800.104 161.636 798.808 165.596 796.432 168.692L781.024 189.5H771.16L782.536 174.956H782.392C771.304 174.956 764.68 167.18 764.68 157.316C764.68 147.452 771.304 139.676 782.392 139.676C793.48 139.676 800.104 147.452 800.104 157.316ZM772.528 157.316C772.528 163.436 776.056 167.972 782.392 167.972C788.728 167.972 792.256 163.436 792.256 157.316C792.256 151.196 788.728 146.66 782.392 146.66C776.056 146.66 772.528 151.196 772.528 157.316ZM814.244 137.372C817.94 137.372 820.724 138.788 822.596 141.62C824.516 144.404 825.476 148.34 825.476 153.428C825.476 158.516 824.564 162.5 822.74 165.38C820.964 168.212 818.132 169.628 814.244 169.628C811.892 169.628 809.876 168.98 808.196 167.684C806.564 166.388 805.34 164.54 804.524 162.14C803.708 159.692 803.3 156.788 803.3 153.428C803.3 148.34 804.164 144.404 805.892 141.62C807.668 138.788 810.452 137.372 814.244 137.372ZM814.244 142.7C812.66 142.7 811.484 143.612 810.716 145.436C809.948 147.212 809.564 149.876 809.564 153.428C809.564 157.028 809.948 159.74 810.716 161.564C811.484 163.388 812.66 164.3 814.244 164.3C815.924 164.3 817.172 163.412 817.988 161.636C818.804 159.812 819.212 157.076 819.212 153.428C819.212 149.876 818.804 147.212 817.988 145.436C817.172 143.612 815.924 142.7 814.244 142.7ZM848.228 138.092L819.716 189.5H813.308L841.82 138.092H848.228ZM847.076 157.964C849.524 157.964 851.564 158.612 853.196 159.908C854.876 161.156 856.148 162.98 857.012 165.38C857.876 167.732 858.308 170.612 858.308 174.02C858.308 179.108 857.396 183.092 855.572 185.972C853.748 188.804 850.916 190.22 847.076 190.22C844.676 190.22 842.66 189.572 841.028 188.276C839.396 186.98 838.148 185.132 837.284 182.732C836.468 180.284 836.06 177.38 836.06 174.02C836.06 168.932 836.924 164.996 838.652 162.212C840.428 159.38 843.236 157.964 847.076 157.964ZM847.076 163.292C845.444 163.292 844.244 164.18 843.476 165.956C842.756 167.732 842.396 170.42 842.396 174.02C842.396 177.62 842.756 180.332 843.476 182.156C844.244 183.932 845.444 184.82 847.076 184.82C848.756 184.82 849.98 183.932 850.748 182.156C851.564 180.38 851.972 177.668 851.972 174.02C851.972 170.42 851.564 167.732 850.748 165.956C849.98 164.18 848.756 163.292 847.076 163.292Z" fill="#262626"/>
<path d="M743.326 233.884C739.63 233.884 737.23 231.82 737.23 227.98V216.7H739.414V227.86C739.414 230.524 740.95 231.916 743.326 231.916C745.726 231.916 747.262 230.524 747.262 227.86V216.7H749.446V227.98C749.446 231.82 747.046 233.884 743.326 233.884ZM757.936 222.148C761.104 222.148 763.288 224.524 763.288 227.98C763.288 231.364 761.008 233.788 757.816 233.788C756.112 233.788 754.576 232.924 753.856 231.556V238.612H751.792V222.436H753.856V224.404C754.576 223.012 756.16 222.148 757.936 222.148ZM757.528 231.916C759.664 231.916 761.2 230.284 761.2 227.98C761.2 225.676 759.664 224.02 757.528 224.02C755.32 224.02 753.76 225.652 753.76 227.98C753.76 230.284 755.32 231.916 757.528 231.916ZM769.55 231.772C769.958 231.772 770.63 231.7 770.942 231.628V233.476C770.534 233.572 769.79 233.644 769.07 233.644C767.774 233.644 765.686 233.404 765.686 229.828V224.188H763.694V222.436H765.686V218.932H767.774V222.436H770.558V224.188H767.774V229.372C767.774 231.484 768.494 231.772 769.55 231.772ZM773.545 220.54C772.537 220.54 771.841 219.796 771.841 218.86C771.841 217.924 772.537 217.156 773.545 217.156C774.529 217.156 775.225 217.924 775.225 218.86C775.225 219.796 774.529 220.54 773.545 220.54ZM774.577 233.5H772.513V222.436H774.577V233.5ZM779.312 233.5H777.224V222.436H779.312V224.452C779.72 223.252 780.848 222.148 782.624 222.148C784.568 222.148 785.744 223.06 786.153 224.524C786.632 223.204 788.001 222.148 789.728 222.148C792.705 222.148 793.713 224.068 793.713 226.492V233.5H791.624V226.9C791.624 224.812 790.713 223.948 789.225 223.948C787.593 223.948 786.512 225.052 786.512 227.74V233.5H784.425V227.068C784.425 224.668 783.392 223.948 782.049 223.948C780.344 223.948 779.312 225.148 779.312 227.74V233.5ZM806.025 227.356C806.025 227.764 806.025 228.076 805.977 228.58H797.409C797.457 230.716 798.777 231.964 800.889 231.964C802.353 231.964 803.361 231.388 803.817 230.332H805.905C805.521 232.372 803.481 233.788 800.889 233.788C797.481 233.788 795.345 231.532 795.345 227.956C795.345 224.452 797.505 222.148 800.793 222.148C803.913 222.148 806.025 224.308 806.025 227.356ZM797.409 226.972H803.985C803.985 225.028 802.785 223.828 800.769 223.828C798.753 223.828 797.505 225.1 797.409 226.972Z" fill="#FF550D"/>
<path d="M1042.39 155.084C1053.48 155.084 1060.1 162.86 1060.1 172.724C1060.1 182.588 1053.48 190.364 1042.39 190.364C1031.3 190.364 1024.68 182.588 1024.68 172.724C1024.68 168.404 1025.97 164.444 1028.35 161.348L1043.76 140.54H1053.62L1042.24 155.084H1042.39ZM1042.39 183.38C1048.72 183.38 1052.25 178.844 1052.25 172.724C1052.25 166.604 1048.72 162.068 1042.39 162.068C1036.05 162.068 1032.52 166.604 1032.52 172.724C1032.52 178.844 1036.05 183.38 1042.39 183.38ZM1082.15 190.364C1069.84 190.364 1063.36 181.58 1063.36 165.02C1063.36 148.46 1069.84 139.676 1082.15 139.676C1094.46 139.676 1100.94 148.46 1100.94 165.02C1100.94 181.58 1094.46 190.364 1082.15 190.364ZM1082.15 183.164C1089.49 183.164 1093.09 177.188 1093.09 165.02C1093.09 152.852 1089.49 146.876 1082.15 146.876C1074.81 146.876 1071.21 152.852 1071.21 165.02C1071.21 177.188 1074.81 183.164 1082.15 183.164Z" fill="#262626"/>
<path d="M945.459 233.884C941.643 233.884 939.387 231.748 939.387 228.148H941.571C941.571 230.5 943.035 231.964 945.435 231.964C947.547 231.964 948.747 230.956 948.747 229.204C948.747 227.716 948.003 226.9 946.059 226.228L943.275 225.244C941.019 224.524 939.891 223.06 939.891 220.828C939.891 218.14 942.051 216.316 945.171 216.316C948.483 216.316 950.619 218.332 950.619 221.452H948.435C948.435 219.388 947.235 218.188 945.099 218.188C943.227 218.188 942.075 219.196 942.075 220.708C942.075 222.124 942.987 223.012 945.051 223.708L947.643 224.62C949.803 225.364 950.931 226.852 950.931 229.132C950.931 232.012 948.795 233.884 945.459 233.884ZM962.632 227.356C962.632 227.764 962.632 228.076 962.584 228.58H954.016C954.064 230.716 955.384 231.964 957.496 231.964C958.96 231.964 959.968 231.388 960.424 230.332H962.512C962.128 232.372 960.088 233.788 957.496 233.788C954.088 233.788 951.952 231.532 951.952 227.956C951.952 224.452 954.112 222.148 957.4 222.148C960.52 222.148 962.632 224.308 962.632 227.356ZM954.016 226.972H960.592C960.592 225.028 959.392 223.828 957.376 223.828C955.36 223.828 954.112 225.1 954.016 226.972ZM969.145 233.788C965.737 233.788 963.649 231.412 963.649 227.98C963.649 224.548 965.737 222.172 969.145 222.172C972.121 222.172 974.041 223.804 974.305 226.276H972.217C971.929 224.812 970.873 224.044 969.121 224.044C967.009 224.044 965.713 225.508 965.713 227.98C965.713 230.428 967.009 231.916 969.121 231.916C970.873 231.916 971.929 231.148 972.217 229.756H974.305C974.041 232.18 972.121 233.788 969.145 233.788ZM981.035 233.788C977.435 233.788 975.275 231.196 975.275 227.98C975.275 224.74 977.435 222.148 981.035 222.148C984.611 222.148 986.795 224.74 986.795 227.98C986.795 231.196 984.611 233.788 981.035 233.788ZM981.035 231.916C983.363 231.916 984.707 230.188 984.707 227.98C984.707 225.748 983.363 224.02 981.035 224.02C978.707 224.02 977.339 225.748 977.339 227.98C977.339 230.188 978.707 231.916 981.035 231.916ZM990.603 233.5H988.515V222.436H990.603V224.476C991.203 223.06 992.547 222.148 994.467 222.148C997.179 222.148 998.571 223.732 998.571 226.684V233.5H996.507V227.596C996.507 225.124 995.691 223.948 993.723 223.948C991.659 223.948 990.603 225.412 990.603 227.644V233.5ZM1009.62 224.404V216.7H1011.69V233.5H1009.62V231.556C1008.93 232.924 1007.34 233.788 1005.69 233.788C1002.16 233.788 1000.21 231.244 1000.21 227.98C1000.21 224.716 1002.3 222.148 1005.73 222.148C1007.49 222.148 1008.93 223.036 1009.62 224.404ZM1005.97 231.916C1008.4 231.916 1009.72 230.116 1009.72 227.98C1009.72 225.844 1008.4 224.02 1005.97 224.02C1003.69 224.02 1002.28 225.7 1002.28 227.98C1002.28 230.236 1003.69 231.916 1005.97 231.916ZM1018.02 233.788C1015.31 233.788 1013.43 232.228 1013.43 230.188H1015.5C1015.5 231.268 1016.51 232.108 1018.14 232.108C1019.36 232.108 1020.18 231.508 1020.18 230.524C1020.18 229.78 1019.84 229.276 1018.52 228.94L1016.27 228.364C1014.63 227.908 1013.77 226.852 1013.77 225.316C1013.77 223.444 1015.5 222.148 1017.9 222.148C1020.54 222.148 1022.15 223.42 1022.15 225.484H1020.11C1020.11 224.428 1019.27 223.756 1017.83 223.756C1016.67 223.756 1015.83 224.308 1015.83 225.22C1015.83 225.916 1016.24 226.42 1017.44 226.756L1019.72 227.38C1021.35 227.836 1022.29 228.916 1022.29 230.452C1022.29 232.564 1020.63 233.788 1018.02 233.788ZM1033.89 231.772C1034.29 231.772 1034.97 231.7 1035.28 231.628V233.476C1034.87 233.572 1034.13 233.644 1033.41 233.644C1032.11 233.644 1030.02 233.404 1030.02 229.828V224.188H1028.03V222.436H1030.02V218.932H1032.11V222.436H1034.89V224.188H1032.11V229.372C1032.11 231.484 1032.83 231.772 1033.89 231.772ZM1041.58 233.788C1037.98 233.788 1035.82 231.196 1035.82 227.98C1035.82 224.74 1037.98 222.148 1041.58 222.148C1045.16 222.148 1047.34 224.74 1047.34 227.98C1047.34 231.196 1045.16 233.788 1041.58 233.788ZM1041.58 231.916C1043.91 231.916 1045.25 230.188 1045.25 227.98C1045.25 225.748 1043.91 224.02 1041.58 224.02C1039.25 224.02 1037.88 225.748 1037.88 227.98C1037.88 230.188 1039.25 231.916 1041.58 231.916ZM1056.47 233.5H1054.29V216.7H1063.84V218.668H1056.47V224.74H1063.84V226.708H1056.47V233.5ZM1067.02 220.54C1066.01 220.54 1065.31 219.796 1065.31 218.86C1065.31 217.924 1066.01 217.156 1067.02 217.156C1068 217.156 1068.7 217.924 1068.7 218.86C1068.7 219.796 1068 220.54 1067.02 220.54ZM1068.05 233.5H1065.98V222.436H1068.05V233.5ZM1072.78 233.5H1070.7V222.436H1072.78V224.956C1073.22 223.084 1074.63 222.268 1076.02 222.268C1076.41 222.268 1076.77 222.292 1077.03 222.364V224.284C1076.67 224.212 1076.38 224.212 1076 224.212C1073.82 224.212 1072.78 226.204 1072.78 228.676V233.5ZM1081.75 233.788C1079.04 233.788 1077.17 232.228 1077.17 230.188H1079.23C1079.23 231.268 1080.24 232.108 1081.87 232.108C1083.1 232.108 1083.91 231.508 1083.91 230.524C1083.91 229.78 1083.58 229.276 1082.26 228.94L1080 228.364C1078.37 227.908 1077.5 226.852 1077.5 225.316C1077.5 223.444 1079.23 222.148 1081.63 222.148C1084.27 222.148 1085.88 223.42 1085.88 225.484H1083.84C1083.84 224.428 1083 223.756 1081.56 223.756C1080.41 223.756 1079.57 224.308 1079.57 225.22C1079.57 225.916 1079.98 226.42 1081.18 226.756L1083.46 227.38C1085.09 227.836 1086.02 228.916 1086.02 230.452C1086.02 232.564 1084.37 233.788 1081.75 233.788ZM1092.13 231.772C1092.54 231.772 1093.21 231.7 1093.53 231.628V233.476C1093.12 233.572 1092.37 233.644 1091.65 233.644C1090.36 233.644 1088.27 233.404 1088.27 229.828V224.188H1086.28V222.436H1088.27V218.932H1090.36V222.436H1093.14V224.188H1090.36V229.372C1090.36 231.484 1091.08 231.772 1092.13 231.772ZM1109.88 233.5H1100.33V216.7H1109.88V218.668H1102.51V224.164H1109.88V226.132H1102.51V231.532H1109.88V233.5ZM1114.41 233.5H1112.33V222.436H1114.41V224.476C1115.01 223.06 1116.36 222.148 1118.28 222.148C1120.99 222.148 1122.38 223.732 1122.38 226.684V233.5H1120.32V227.596C1120.32 225.124 1119.5 223.948 1117.53 223.948C1115.47 223.948 1114.41 225.412 1114.41 227.644V233.5ZM1133.43 224.404V216.7H1135.5V233.5H1133.43V231.556C1132.74 232.924 1131.15 233.788 1129.5 233.788C1125.97 233.788 1124.02 231.244 1124.02 227.98C1124.02 224.716 1126.11 222.148 1129.54 222.148C1131.3 222.148 1132.74 223.036 1133.43 224.404ZM1129.78 231.916C1132.21 231.916 1133.53 230.116 1133.53 227.98C1133.53 225.844 1132.21 224.02 1129.78 224.02C1127.5 224.02 1126.09 225.7 1126.09 227.98C1126.09 230.236 1127.5 231.916 1129.78 231.916ZM1144.28 222.148C1147.44 222.148 1149.63 224.524 1149.63 227.98C1149.63 231.364 1147.35 233.788 1144.16 233.788C1142.45 233.788 1140.92 232.924 1140.2 231.556V238.612H1138.13V222.436H1140.2V224.404C1140.92 223.012 1142.5 222.148 1144.28 222.148ZM1143.87 231.916C1146 231.916 1147.54 230.284 1147.54 227.98C1147.54 225.676 1146 224.02 1143.87 224.02C1141.66 224.02 1140.1 225.652 1140.1 227.98C1140.1 230.284 1141.66 231.916 1143.87 231.916ZM1156.22 233.788C1152.62 233.788 1150.46 231.196 1150.46 227.98C1150.46 224.74 1152.62 222.148 1156.22 222.148C1159.8 222.148 1161.98 224.74 1161.98 227.98C1161.98 231.196 1159.8 233.788 1156.22 233.788ZM1156.22 231.916C1158.55 231.916 1159.9 230.188 1159.9 227.98C1159.9 225.748 1158.55 224.02 1156.22 224.02C1153.9 224.02 1152.53 225.748 1152.53 227.98C1152.53 230.188 1153.9 231.916 1156.22 231.916ZM1164.74 220.54C1163.73 220.54 1163.03 219.796 1163.03 218.86C1163.03 217.924 1163.73 217.156 1164.74 217.156C1165.72 217.156 1166.42 217.924 1166.42 218.86C1166.42 219.796 1165.72 220.54 1164.74 220.54ZM1165.77 233.5H1163.7V222.436H1165.77V233.5ZM1170.5 233.5H1168.42V222.436H1170.5V224.476C1171.1 223.06 1172.45 222.148 1174.37 222.148C1177.08 222.148 1178.47 223.732 1178.47 226.684V233.5H1176.41V227.596C1176.41 225.124 1175.59 223.948 1173.62 223.948C1171.56 223.948 1170.5 225.412 1170.5 227.644V233.5ZM1185.33 231.772C1185.74 231.772 1186.41 231.7 1186.72 231.628V233.476C1186.31 233.572 1185.57 233.644 1184.85 233.644C1183.55 233.644 1181.47 233.404 1181.47 229.828V224.188H1179.47V222.436H1181.47V218.932H1183.55V222.436H1186.34V224.188H1183.55V229.372C1183.55 231.484 1184.27 231.772 1185.33 231.772Z" fill="#FF550D"/>
</g>
<defs>
<filter id="filter0_d_2015_71" x="38.5" y="55.5" width="1230" height="283" filterUnits="userSpaceOnUse" color-interpolation-filters="sRGB">
<feFlood flood-opacity="0" result="BackgroundImageFix"/>
<feColorMatrix in="SourceAlpha" type="matrix" values="0 0 0 0 0 0 0 0 0 0 0 0 0 0 0 0 0 0 127 0" result="hardAlpha"/>
<feOffset dy="15"/>
<feGaussianBlur stdDeviation="7.5"/>
<feComposite in2="hardAlpha" operator="out"/>
<feColorMatrix type="matrix" values="0 0 0 0 0 0 0 0 0 0 0 0 0 0 0 0 0 0 0.03 0"/>
<feBlend mode="normal" in2="BackgroundImageFix" result="effect1_dropShadow_2015_71"/>
<feBlend mode="normal" in="SourceGraphic" in2="effect1_dropShadow_2015_71" result="shape"/>
</filter>
<linearGradient id="paint0_linear_2015_71" x1="0" y1="182" x2="1307" y2="182" gradientUnits="userSpaceOnUse">
<stop stop-color="#FFE0D3"/>
<stop offset="1" stop-color="#FFF0EA"/>
</linearGradient>
</defs>
</svg>
