<svg width="33" height="32" viewBox="0 0 33 32" fill="none" xmlns="http://www.w3.org/2000/svg">
<path d="M29.5 26C29.5 26.2652 29.3946 26.5196 29.2071 26.7071C29.0196 26.8946 28.7652 27 28.5 27H4.5C4.23478 27 3.98043 26.8946 3.79289 26.7071C3.60536 26.5196 3.5 26.2652 3.5 26V6C3.5 5.73478 3.60536 5.48043 3.79289 5.29289C3.98043 5.10536 4.23478 5 4.5 5C4.76522 5 5.01957 5.10536 5.20711 5.29289C5.39464 5.48043 5.5 5.73478 5.5 6V25H28.5C28.7652 25 29.0196 25.1054 29.2071 25.2929C29.3946 25.4804 29.5 25.7348 29.5 26ZM17 20C17.2967 20 17.5867 19.912 17.8334 19.7472C18.08 19.5824 18.2723 19.3481 18.3858 19.074C18.4993 18.7999 18.5291 18.4983 18.4712 18.2074C18.4133 17.9164 18.2704 17.6491 18.0607 17.4393C17.8509 17.2296 17.5836 17.0867 17.2926 17.0288C17.0017 16.9709 16.7001 17.0007 16.426 17.1142C16.1519 17.2277 15.9176 17.42 15.7528 17.6666C15.588 17.9133 15.5 18.2033 15.5 18.5C15.5 18.8978 15.658 19.2794 15.9393 19.5607C16.2206 19.842 16.6022 20 17 20ZM14 13C14.2967 13 14.5867 12.912 14.8334 12.7472C15.08 12.5824 15.2723 12.3481 15.3858 12.074C15.4994 11.7999 15.5291 11.4983 15.4712 11.2074C15.4133 10.9164 15.2704 10.6491 15.0607 10.4393C14.8509 10.2296 14.5836 10.0867 14.2926 10.0288C14.0017 9.97094 13.7001 10.0006 13.426 10.1142C13.1519 10.2277 12.9176 10.42 12.7528 10.6666C12.588 10.9133 12.5 11.2033 12.5 11.5C12.5 11.8978 12.658 12.2794 12.9393 12.5607C13.2206 12.842 13.6022 13 14 13ZM10 22C10.2967 22 10.5867 21.912 10.8334 21.7472C11.08 21.5824 11.2723 21.3481 11.3858 21.074C11.4994 20.7999 11.5291 20.4983 11.4712 20.2074C11.4133 19.9164 11.2704 19.6491 11.0607 19.4393C10.8509 19.2296 10.5836 19.0867 10.2926 19.0288C10.0017 18.9709 9.70006 19.0007 9.42597 19.1142C9.15189 19.2277 8.91762 19.42 8.7528 19.6666C8.58797 19.9133 8.5 20.2033 8.5 20.5C8.5 20.8978 8.65804 21.2794 8.93934 21.5607C9.22064 21.842 9.60218 22 10 22ZM22 16C22.2967 16 22.5867 15.912 22.8334 15.7472C23.08 15.5824 23.2723 15.3481 23.3858 15.074C23.4993 14.7999 23.5291 14.4983 23.4712 14.2074C23.4133 13.9164 23.2704 13.6491 23.0607 13.4393C22.8509 13.2296 22.5836 13.0867 22.2926 13.0288C22.0017 12.9709 21.7001 13.0006 21.426 13.1142C21.1519 13.2277 20.9176 13.42 20.7528 13.6666C20.588 13.9133 20.5 14.2033 20.5 14.5C20.5 14.8978 20.658 15.2794 20.9393 15.5607C21.2206 15.842 21.6022 16 22 16ZM25 11C25.2967 11 25.5867 10.912 25.8334 10.7472C26.08 10.5824 26.2723 10.3481 26.3858 10.074C26.4993 9.79994 26.5291 9.49834 26.4712 9.20736C26.4133 8.91639 26.2704 8.64912 26.0607 8.43934C25.8509 8.22956 25.5836 8.0867 25.2926 8.02882C25.0017 7.97094 24.7001 8.00065 24.426 8.11418C24.1519 8.22771 23.9176 8.41997 23.7528 8.66665C23.588 8.91332 23.5 9.20333 23.5 9.5C23.5 9.89782 23.658 10.2794 23.9393 10.5607C24.2206 10.842 24.6022 11 25 11ZM22.5 20.5C22.5 20.7967 22.588 21.0867 22.7528 21.3334C22.9176 21.58 23.1519 21.7723 23.426 21.8858C23.7001 21.9993 24.0017 22.0291 24.2926 21.9712C24.5836 21.9133 24.8509 21.7704 25.0607 21.5607C25.2704 21.3509 25.4133 21.0836 25.4712 20.7926C25.5291 20.5017 25.4993 20.2001 25.3858 19.926C25.2723 19.6519 25.08 19.4176 24.8334 19.2528C24.5867 19.088 24.2967 19 24 19C23.6022 19 23.2206 19.158 22.9393 19.4393C22.658 19.7206 22.5 20.1022 22.5 20.5Z" fill="#FF550D"/>
</svg>
