<svg width="24" height="24" viewBox="0 0 24 24" fill="none" xmlns="http://www.w3.org/2000/svg">
<rect width="24" height="24" rx="12" fill="#262626" fill-opacity="0.8"/>
<path d="M15.3538 12.3538L10.3538 17.3538C10.3073 17.4002 10.2522 17.4371 10.1915 17.4622C10.1308 17.4873 10.0657 17.5003 10 17.5003C9.93434 17.5003 9.86928 17.4873 9.80859 17.4622C9.74789 17.4371 9.69274 17.4002 9.64628 17.3538C9.59983 17.3073 9.56298 17.2521 9.53784 17.1915C9.5127 17.1308 9.49976 17.0657 9.49976 17C9.49976 16.9343 9.5127 16.8693 9.53784 16.8086C9.56298 16.7479 9.59983 16.6927 9.64628 16.6463L14.2932 12L9.64628 7.35375C9.55246 7.25993 9.49976 7.13269 9.49976 7C9.49976 6.86732 9.55246 6.74007 9.64628 6.64625C9.7401 6.55243 9.86735 6.49973 10 6.49973C10.1327 6.49973 10.26 6.55243 10.3538 6.64625L15.3538 11.6463C15.4003 11.6927 15.4372 11.7478 15.4623 11.8085C15.4875 11.8692 15.5004 11.9343 15.5004 12C15.5004 12.0657 15.4875 12.1308 15.4623 12.1915C15.4372 12.2522 15.4003 12.3073 15.3538 12.3538Z" fill="#F9F9F9"/>
</svg>
