<svg width="36" height="36" viewBox="0 0 36 36" fill="none" xmlns="http://www.w3.org/2000/svg">
<path d="M30.0459 11.5791L22.1709 3.70406C22.0664 3.59962 21.9423 3.51681 21.8057 3.46035C21.6691 3.40389 21.5228 3.37488 21.375 3.375H7.875C7.27826 3.375 6.70597 3.61205 6.28401 4.03401C5.86205 4.45597 5.625 5.02826 5.625 5.625V30.375C5.625 30.9717 5.86205 31.544 6.28401 31.966C6.70597 32.3879 7.27826 32.625 7.875 32.625H28.125C28.7217 32.625 29.294 32.3879 29.716 31.966C30.1379 31.544 30.375 30.9717 30.375 30.375V12.375C30.3751 12.2272 30.3461 12.0809 30.2897 11.9443C30.2332 11.8077 30.1504 11.6836 30.0459 11.5791ZM22.5 7.21547L26.5345 11.25H22.5V7.21547ZM28.125 30.375H7.875V5.625H20.25V12.375C20.25 12.6734 20.3685 12.9595 20.5795 13.1705C20.7905 13.3815 21.0766 13.5 21.375 13.5H28.125V30.375ZM23.625 19.125C23.625 19.4234 23.5065 19.7095 23.2955 19.9205C23.0845 20.1315 22.7984 20.25 22.5 20.25H13.5C13.2016 20.25 12.9155 20.1315 12.7045 19.9205C12.4935 19.7095 12.375 19.4234 12.375 19.125C12.375 18.8266 12.4935 18.5405 12.7045 18.3295C12.9155 18.1185 13.2016 18 13.5 18H22.5C22.7984 18 23.0845 18.1185 23.2955 18.3295C23.5065 18.5405 23.625 18.8266 23.625 19.125ZM23.625 23.625C23.625 23.9234 23.5065 24.2095 23.2955 24.4205C23.0845 24.6315 22.7984 24.75 22.5 24.75H13.5C13.2016 24.75 12.9155 24.6315 12.7045 24.4205C12.4935 24.2095 12.375 23.9234 12.375 23.625C12.375 23.3266 12.4935 23.0405 12.7045 22.8295C12.9155 22.6185 13.2016 22.5 13.5 22.5H22.5C22.7984 22.5 23.0845 22.6185 23.2955 22.8295C23.5065 23.0405 23.625 23.3266 23.625 23.625Z" fill="#262626"/>
</svg>
