<svg width="162" height="36" viewBox="0 0 162 36" fill="none" xmlns="http://www.w3.org/2000/svg">
<path d="M21.875 16.875H19.625V7.875H20.75C21.9435 7.875 23.0881 8.34911 23.932 9.19302C24.7759 10.0369 25.25 11.1815 25.25 12.375C25.25 12.6734 25.3685 12.9595 25.5795 13.1705C25.7905 13.3815 26.0766 13.5 26.375 13.5C26.6734 13.5 26.9595 13.3815 27.1705 13.1705C27.3815 12.9595 27.5 12.6734 27.5 12.375C27.4981 10.5854 26.7864 8.86955 25.5209 7.60408C24.2554 6.33862 22.5396 5.62686 20.75 5.625H19.625V3.375C19.625 3.07663 19.5065 2.79048 19.2955 2.5795C19.0845 2.36853 18.7984 2.25 18.5 2.25C18.2016 2.25 17.9155 2.36853 17.7045 2.5795C17.4935 2.79048 17.375 3.07663 17.375 3.375V5.625H16.25C14.4598 5.625 12.7429 6.33616 11.477 7.60203C10.2112 8.8679 9.5 10.5848 9.5 12.375C9.5 14.1652 10.2112 15.8821 11.477 17.148C12.7429 18.4138 14.4598 19.125 16.25 19.125H17.375V28.125H15.125C13.9315 28.125 12.7869 27.6509 11.943 26.807C11.0991 25.9631 10.625 24.8185 10.625 23.625C10.625 23.3266 10.5065 23.0405 10.2955 22.8295C10.0845 22.6185 9.79837 22.5 9.5 22.5C9.20163 22.5 8.91548 22.6185 8.70451 22.8295C8.49353 23.0405 8.375 23.3266 8.375 23.625C8.37686 25.4146 9.08862 27.1304 10.3541 28.3959C11.6196 29.6614 13.3354 30.3731 15.125 30.375H17.375V32.625C17.375 32.9234 17.4935 33.2095 17.7045 33.4205C17.9155 33.6315 18.2016 33.75 18.5 33.75C18.7984 33.75 19.0845 33.6315 19.2955 33.4205C19.5065 33.2095 19.625 32.9234 19.625 32.625V30.375H21.875C23.6652 30.375 25.3821 29.6638 26.648 28.398C27.9138 27.1321 28.625 25.4152 28.625 23.625C28.625 21.8348 27.9138 20.1179 26.648 18.852C25.3821 17.5862 23.6652 16.875 21.875 16.875ZM16.25 16.875C15.0565 16.875 13.9119 16.4009 13.068 15.557C12.2241 14.7131 11.75 13.5685 11.75 12.375C11.75 11.1815 12.2241 10.0369 13.068 9.19302C13.9119 8.34911 15.0565 7.875 16.25 7.875H17.375V16.875H16.25ZM21.875 28.125H19.625V19.125H21.875C23.0685 19.125 24.2131 19.5991 25.057 20.443C25.9009 21.2869 26.375 22.4315 26.375 23.625C26.375 24.8185 25.9009 25.9631 25.057 26.807C24.2131 27.6509 23.0685 28.125 21.875 28.125Z" fill="#FF550D"/>
<path d="M49.8549 25.5H47.6709V10.764H42.6549V8.7H54.8709V10.764H49.8549V25.5ZM56.3374 25.5H54.2494V14.436H56.3374V16.956C56.7694 15.084 58.1854 14.268 59.5774 14.268C59.9614 14.268 60.3214 14.292 60.5854 14.364V16.284C60.2254 16.212 59.9374 16.212 59.5534 16.212C57.3694 16.212 56.3374 18.204 56.3374 20.676V25.5ZM66.0531 25.788C62.5251 25.788 60.5811 23.244 60.5811 19.98C60.5811 16.716 62.6691 14.148 66.1011 14.148C67.8531 14.148 69.2931 15.036 69.9891 16.404V14.436H72.0531V25.5H69.9891V23.556C69.2931 24.924 67.7091 25.788 66.0531 25.788ZM66.3411 23.916C68.7651 23.916 70.0851 22.116 70.0851 19.98C70.0851 17.844 68.7651 16.02 66.3411 16.02C64.0611 16.02 62.6451 17.7 62.6451 19.98C62.6451 22.236 64.0611 23.916 66.3411 23.916ZM76.7768 25.5H74.6888V14.436H76.7768V16.476C77.3768 15.06 78.7208 14.148 80.6408 14.148C83.3528 14.148 84.7448 15.732 84.7448 18.684V25.5H82.6808V19.596C82.6808 17.124 81.8648 15.948 79.8968 15.948C77.8328 15.948 76.7768 17.412 76.7768 19.644V25.5ZM90.9716 25.788C88.2596 25.788 86.3876 24.228 86.3876 22.188H88.4516C88.4516 23.268 89.4596 24.108 91.0916 24.108C92.3156 24.108 93.1316 23.508 93.1316 22.524C93.1316 21.78 92.7956 21.276 91.4756 20.94L89.2196 20.364C87.5876 19.908 86.7236 18.852 86.7236 17.316C86.7236 15.444 88.4516 14.148 90.8516 14.148C93.4916 14.148 95.0996 15.42 95.0996 17.484H93.0596C93.0596 16.428 92.2196 15.756 90.7796 15.756C89.6276 15.756 88.7876 16.308 88.7876 17.22C88.7876 17.916 89.1956 18.42 90.3956 18.756L92.6756 19.38C94.3076 19.836 95.2436 20.916 95.2436 22.452C95.2436 24.564 93.5876 25.788 90.9716 25.788ZM103.241 14.148C106.409 14.148 108.593 16.524 108.593 19.98C108.593 23.364 106.313 25.788 103.121 25.788C101.417 25.788 99.8809 24.924 99.1609 23.556V30.612H97.0969V14.436H99.1609V16.404C99.8809 15.012 101.465 14.148 103.241 14.148ZM102.833 23.916C104.969 23.916 106.505 22.284 106.505 19.98C106.505 17.676 104.969 16.02 102.833 16.02C100.625 16.02 99.0649 17.652 99.0649 19.98C99.0649 22.284 100.625 23.916 102.833 23.916ZM114.901 25.788C111.373 25.788 109.429 23.244 109.429 19.98C109.429 16.716 111.517 14.148 114.949 14.148C116.701 14.148 118.141 15.036 118.837 16.404V14.436H120.901V25.5H118.837V23.556C118.141 24.924 116.557 25.788 114.901 25.788ZM115.189 23.916C117.613 23.916 118.933 22.116 118.933 19.98C118.933 17.844 117.613 16.02 115.189 16.02C112.909 16.02 111.493 17.7 111.493 19.98C111.493 22.236 112.909 23.916 115.189 23.916ZM125.624 25.5H123.536V14.436H125.624V16.956C126.056 15.084 127.472 14.268 128.864 14.268C129.248 14.268 129.608 14.292 129.872 14.364V16.284C129.512 16.212 129.224 16.212 128.84 16.212C126.656 16.212 125.624 18.204 125.624 20.676V25.5ZM140.689 19.356C140.689 19.764 140.689 20.076 140.641 20.58H132.073C132.121 22.716 133.441 23.964 135.553 23.964C137.017 23.964 138.025 23.388 138.481 22.332H140.569C140.185 24.372 138.145 25.788 135.553 25.788C132.145 25.788 130.009 23.532 130.009 19.956C130.009 16.452 132.169 14.148 135.457 14.148C138.577 14.148 140.689 16.308 140.689 19.356ZM132.073 18.972H138.649C138.649 17.028 137.449 15.828 135.433 15.828C133.417 15.828 132.169 17.1 132.073 18.972ZM144.54 25.5H142.452V14.436H144.54V16.476C145.14 15.06 146.484 14.148 148.404 14.148C151.116 14.148 152.508 15.732 152.508 18.684V25.5H150.444V19.596C150.444 17.124 149.628 15.948 147.66 15.948C145.596 15.948 144.54 17.412 144.54 19.644V25.5ZM159.366 23.772C159.774 23.772 160.446 23.7 160.758 23.628V25.476C160.35 25.572 159.606 25.644 158.886 25.644C157.59 25.644 155.502 25.404 155.502 21.828V16.188H153.51V14.436H155.502V10.932H157.59V14.436H160.374V16.188H157.59V21.372C157.59 23.484 158.31 23.772 159.366 23.772Z" fill="#FF550D"/>
</svg>
