<svg width="33" height="32" viewBox="0 0 33 32" fill="none" xmlns="http://www.w3.org/2000/svg">
<path d="M19.5 28C19.5 28.2652 19.3947 28.5195 19.2072 28.7071C19.0196 28.8946 18.7653 29 18.5 29H14.5C14.2348 29 13.9805 28.8946 13.7929 28.7071C13.6054 28.5195 13.5 28.2652 13.5 28C13.5 27.7348 13.6054 27.4804 13.7929 27.2929C13.9805 27.1053 14.2348 27 14.5 27H18.5C18.7653 27 19.0196 27.1053 19.2072 27.2929C19.3947 27.4804 19.5 27.7348 19.5 28ZM16.5 14C16.7967 14 17.0867 13.912 17.3334 13.7472C17.5801 13.5824 17.7723 13.3481 17.8859 13.074C17.9994 12.7999 18.0291 12.4983 17.9712 12.2073C17.9133 11.9164 17.7705 11.6491 17.5607 11.4393C17.3509 11.2295 17.0837 11.0867 16.7927 11.0288C16.5017 10.9709 16.2001 11.0006 15.926 11.1142C15.6519 11.2277 15.4177 11.4199 15.2528 11.6666C15.088 11.9133 15 12.2033 15 12.5C15 12.8978 15.1581 13.2793 15.4394 13.5606C15.7207 13.8419 16.1022 14 16.5 14ZM28.4525 19.4787L26.9075 26.4325C26.8343 26.7627 26.6784 27.0689 26.4546 27.3225C26.2307 27.5761 25.9462 27.7688 25.6277 27.8826C25.3091 27.9963 24.9669 28.0274 24.6331 27.973C24.2993 27.9185 23.9847 27.7803 23.7188 27.5712L20.3138 25H12.6888L9.2813 27.5712C9.01541 27.7803 8.70083 27.9185 8.36699 27.973C8.03315 28.0274 7.69095 27.9963 7.3724 27.8826C7.05385 27.7688 6.76936 27.5761 6.54553 27.3225C6.3217 27.0689 6.16585 26.7627 6.09255 26.4325L4.54755 19.4787C4.48201 19.1803 4.48532 18.8709 4.55723 18.5739C4.62914 18.277 4.76775 18.0003 4.96255 17.765L8.53255 13.4825C8.65237 11.9086 9.01368 10.3626 9.6038 8.89872C11.2163 4.85622 14.1038 2.31997 15.275 1.41747C15.6256 1.14583 16.0565 0.998413 16.5 0.998413C16.9436 0.998413 17.3745 1.14583 17.725 1.41747C18.8925 2.31997 21.7838 4.85622 23.3963 8.89872C23.9864 10.3626 24.3477 11.9086 24.4676 13.4825L28.0376 17.765C28.2323 18.0003 28.371 18.277 28.4429 18.5739C28.5148 18.8709 28.5181 19.1803 28.4525 19.4787ZM12.9288 23H20.0713C22.7113 18.3075 23.205 13.815 21.5388 9.63997C20.0688 5.95497 17.3113 3.62497 16.5 2.99997C15.6863 3.62497 12.9288 5.95497 11.4588 9.63997C9.79505 13.815 10.2888 18.3075 12.9288 23ZM11.0538 23.7312C9.70796 21.2854 8.8913 18.8816 8.6038 16.52L6.50005 19.045L8.04505 26L8.06755 25.9837L11.0538 23.7312ZM26.5001 19.045L24.3963 16.52C24.1113 18.8766 23.2963 21.2804 21.9513 23.7312L24.9326 25.9812L24.9551 25.9975L26.5001 19.045Z" fill="#FF550D"/>
</svg>
