<svg width="197" height="36" viewBox="0 0 197 36" fill="none" xmlns="http://www.w3.org/2000/svg">
<path d="M29.1178 10.2193C27.6595 8.7577 25.9263 7.59925 24.0182 6.81074C22.11 6.02223 20.0646 5.61926 18 5.62506H17.9437C9.29109 5.65459 2.25 12.7969 2.25 21.534V24.7501C2.25 25.3468 2.48705 25.9191 2.90901 26.3411C3.33097 26.763 3.90326 27.0001 4.5 27.0001H31.5C32.0967 27.0001 32.669 26.763 33.091 26.3411C33.5129 25.9191 33.75 25.3468 33.75 24.7501V21.3751C33.7558 19.3014 33.3492 17.2472 32.554 15.3321C31.7588 13.4169 30.5907 11.679 29.1178 10.2193ZM31.5 24.7501H16.8342L24.5348 14.161C24.7105 13.9197 24.7831 13.6185 24.7367 13.3236C24.6903 13.0288 24.5287 12.7645 24.2873 12.5888C24.046 12.4131 23.7448 12.3405 23.45 12.387C23.1551 12.4334 22.8908 12.595 22.7152 12.8363L14.0512 24.7501H4.5V21.534C4.5 21.1008 4.52109 20.6733 4.56047 20.2501H7.875C8.17337 20.2501 8.45952 20.1315 8.6705 19.9206C8.88147 19.7096 9 19.4234 9 19.1251C9 18.8267 8.88147 18.5405 8.6705 18.3296C8.45952 18.1186 8.17337 18.0001 7.875 18.0001H4.95984C6.41109 12.5354 11.1473 8.40381 16.875 7.92287V11.2501C16.875 11.5484 16.9935 11.8346 17.2045 12.0456C17.4155 12.2565 17.7016 12.3751 18 12.3751C18.2984 12.3751 18.5845 12.2565 18.7955 12.0456C19.0065 11.8346 19.125 11.5484 19.125 11.2501V7.92147C21.9159 8.15634 24.565 9.2522 26.7062 11.0576C28.8475 12.8631 30.3751 15.2889 31.0781 18.0001H28.125C27.8266 18.0001 27.5405 18.1186 27.3295 18.3296C27.1185 18.5405 27 18.8267 27 19.1251C27 19.4234 27.1185 19.7096 27.3295 19.9206C27.5405 20.1315 27.8266 20.2501 28.125 20.2501H31.4536C31.4831 20.6227 31.5 20.9968 31.5 21.3751V24.7501Z" fill="#FF550D"/>
<path d="M51.6884 16.932C53.5124 17.148 55.0724 18.564 55.0724 20.916C55.0724 23.772 53.0804 25.5 49.8644 25.5H44.1044V8.7H49.6244C52.8644 8.7 54.8564 10.332 54.8564 13.044C54.8564 15.324 53.5844 16.548 51.6884 16.932ZM49.5524 10.644H46.2884V16.02H49.6964C51.4964 16.02 52.6724 14.988 52.6724 13.332C52.6724 11.604 51.4964 10.644 49.5524 10.644ZM46.2884 23.556H49.8164C51.7124 23.556 52.8884 22.5 52.8884 20.7C52.8884 19.044 51.6884 17.94 50.0084 17.94H46.2884V23.556ZM61.0731 25.788C58.6011 25.788 56.8731 24.3 56.8731 21.252V14.436H58.9611V20.772C58.9611 22.716 59.6811 23.988 61.6491 23.988C63.9291 23.988 64.7931 22.26 64.7931 20.484V14.436H66.8811V25.5H64.7931V23.484C64.1931 24.852 62.8971 25.788 61.0731 25.788ZM70.5417 12.54C69.5337 12.54 68.8377 11.796 68.8377 10.86C68.8377 9.924 69.5337 9.156 70.5417 9.156C71.5257 9.156 72.2217 9.924 72.2217 10.86C72.2217 11.796 71.5257 12.54 70.5417 12.54ZM71.5737 25.5H69.5097V14.436H71.5737V25.5ZM76.3096 25.5H74.2216V8.7H76.3096V25.5ZM83.5889 23.772C83.9969 23.772 84.6689 23.7 84.9809 23.628V25.476C84.5729 25.572 83.8289 25.644 83.1089 25.644C81.8129 25.644 79.7249 25.404 79.7249 21.828V16.188H77.7329V14.436H79.7249V10.932H81.8129V14.436H84.5969V16.188H81.8129V21.372C81.8129 23.484 82.5329 23.772 83.5889 23.772ZM97.2059 25.5H95.0219V10.764H90.0059V8.7H102.222V10.764H97.2059V25.5ZM106.402 25.788C102.802 25.788 100.642 23.196 100.642 19.98C100.642 16.74 102.802 14.148 106.402 14.148C109.978 14.148 112.162 16.74 112.162 19.98C112.162 23.196 109.978 25.788 106.402 25.788ZM106.402 23.916C108.73 23.916 110.074 22.188 110.074 19.98C110.074 17.748 108.73 16.02 106.402 16.02C104.074 16.02 102.706 17.748 102.706 19.98C102.706 22.188 104.074 23.916 106.402 23.916ZM119.113 8.7H125.137C128.425 8.7 130.777 11.124 130.777 14.508C130.777 17.868 128.425 20.292 125.137 20.292H121.297V25.5H119.113V8.7ZM121.297 18.324H125.017C127.081 18.324 128.593 16.716 128.593 14.508C128.593 12.276 127.081 10.668 125.017 10.668H121.297V18.324ZM141.747 19.356C141.747 19.764 141.747 20.076 141.699 20.58H133.131C133.179 22.716 134.499 23.964 136.611 23.964C138.075 23.964 139.083 23.388 139.539 22.332H141.627C141.243 24.372 139.203 25.788 136.611 25.788C133.203 25.788 131.067 23.532 131.067 19.956C131.067 16.452 133.227 14.148 136.515 14.148C139.635 14.148 141.747 16.308 141.747 19.356ZM133.131 18.972H139.707C139.707 17.028 138.507 15.828 136.491 15.828C134.475 15.828 133.227 17.1 133.131 18.972ZM145.598 25.5H143.51V14.436H145.598V16.956C146.03 15.084 147.446 14.268 148.838 14.268C149.222 14.268 149.582 14.292 149.846 14.364V16.284C149.486 16.212 149.198 16.212 148.814 16.212C146.63 16.212 145.598 18.204 145.598 20.676V25.5ZM156.498 10.428C155.658 10.428 154.53 10.596 154.53 12.468V14.436H157.65V16.188H154.53V25.5H152.442V16.188H150.09V14.436H152.442V12.516C152.442 9.06 154.77 8.556 155.97 8.556C156.69 8.556 157.29 8.676 157.65 8.82V10.596C157.29 10.5 156.93 10.428 156.498 10.428ZM163.478 25.788C159.878 25.788 157.718 23.196 157.718 19.98C157.718 16.74 159.878 14.148 163.478 14.148C167.054 14.148 169.238 16.74 169.238 19.98C169.238 23.196 167.054 25.788 163.478 25.788ZM163.478 23.916C165.806 23.916 167.15 22.188 167.15 19.98C167.15 17.748 165.806 16.02 163.478 16.02C161.15 16.02 159.782 17.748 159.782 19.98C159.782 22.188 161.15 23.916 163.478 23.916ZM173.046 25.5H170.958V14.436H173.046V16.956C173.478 15.084 174.894 14.268 176.286 14.268C176.67 14.268 177.03 14.292 177.294 14.364V16.284C176.934 16.212 176.646 16.212 176.262 16.212C174.078 16.212 173.046 18.204 173.046 20.676V25.5ZM180.735 25.5H178.647V14.436H180.735V16.452C181.143 15.252 182.271 14.148 184.047 14.148C185.991 14.148 187.167 15.06 187.575 16.524C188.055 15.204 189.423 14.148 191.151 14.148C194.127 14.148 195.135 16.068 195.135 18.492V25.5H193.047V18.9C193.047 16.812 192.135 15.948 190.647 15.948C189.015 15.948 187.935 17.052 187.935 19.74V25.5H185.847V19.068C185.847 16.668 184.815 15.948 183.471 15.948C181.767 15.948 180.735 17.148 180.735 19.74V25.5Z" fill="#FF550D"/>
</svg>
