<svg width="92" height="34" viewBox="0 0 92 34" fill="none" xmlns="http://www.w3.org/2000/svg">
<path d="M27.3248 0.443999H32.6528L22.1768 25.932H21.6008L16.3808 16.572L11.1248 25.932H10.5848L0.0727969 0.443999H5.4008L11.4848 15.492L16.0928 7.212H16.6328L21.2408 15.492L27.3248 0.443999ZM16.6328 6.06H16.0928L12.9968 0.443999H19.7648L16.6328 6.06ZM30.4371 16.068C30.4371 9.48 35.1171 6.204 39.7611 6.204C44.4411 6.204 49.0851 9.48 49.0851 16.068V25.5H44.2971V23.628C42.8571 25.176 40.8771 25.932 38.8611 25.932C34.7211 25.932 30.4371 22.656 30.4371 16.068ZM35.4051 16.068C35.4051 19.992 37.6371 21.936 39.8691 21.936C42.0651 21.936 44.2971 19.992 44.2971 16.068C44.2971 12.432 42.0651 10.632 39.8691 10.632C37.6371 10.632 35.4051 12.432 35.4051 16.068ZM57.8376 8.868L62.5536 6.42V11.856L57.8376 9.408V8.868ZM56.7936 25.5H52.0056V6.6H56.7936V25.5ZM69.3795 8.868C70.7835 7.104 72.9795 6.168 75.2115 6.168C79.4235 6.168 83.8155 9.336 83.8155 16.068C83.8155 22.764 79.4235 25.932 75.2475 25.932C72.9795 25.932 70.7835 25.032 69.3795 23.232V33.816H64.5915V6.6H69.3795V8.868ZM69.3795 16.068C69.3795 20.1 71.7555 22.116 74.1315 22.116C76.4715 22.116 78.8475 20.1 78.8475 16.068C78.8475 12 76.4715 9.984 74.1315 9.984C71.7555 9.984 69.3795 12 69.3795 16.068ZM88.5234 19.812C90.2154 19.812 91.5834 21.18 91.5834 22.872C91.5834 24.564 90.2154 25.932 88.5234 25.932C86.7954 25.932 85.4634 24.564 85.4634 22.872C85.4634 21.18 86.7954 19.812 88.5234 19.812Z" fill="#FF550D"/>
</svg>
